<?xml version="1.0" encoding="iso-8859-1"?>
<!-- Generator: Adobe Illustrator 19.0.0, SVG Export Plug-In . SVG Version: 6.00 Build 0)  -->
<svg xmlns="http://www.w3.org/2000/svg" xmlns:xlink="http://www.w3.org/1999/xlink" version="1.1" id="Capa_1" x="0px" y="0px" viewBox="0 0 479.791 479.791" style="enable-background:new 0 0 479.791 479.791;" xml:space="preserve" width="512px" height="512px">
<g>
	<g>
		<path d="M201.977,0.614c-9.932-0.176-18.974,5.705-22.84,14.856L1.913,444.062c-5.338,13.006,0.878,27.877,13.884,33.215    c2.983,1.224,6.171,1.871,9.396,1.905c3.39-0.001,6.745-0.676,9.872-1.984l429.84-177.2c9.282-3.786,15.219-12.958,14.872-22.976    C472.495,126.952,352.081,7.142,201.977,0.614z M158.657,106.862c22.973,14.245,30.048,44.416,15.803,67.389    c-11.06,17.836-32.259,26.635-52.699,21.875L158.657,106.862z M58.313,349.598l5.088-0.232c4.414-0.206,7.824-3.951,7.619-8.364    c-0.015-0.328-0.051-0.656-0.107-0.98l-2.528-14.784l5.864-14.192l4.928-0.84c18.946-3.258,36.946,9.46,40.203,28.406    c0.002,0.009,0.003,0.018,0.005,0.026l3.104,18.088c3.25,18.956-9.482,36.958-28.439,40.208c0,0-0.001,0-0.001,0l-12.992,2.224    l-5.072-29.6c-0.748-4.355-4.884-7.279-9.238-6.531c-0.325,0.056-0.646,0.132-0.962,0.227l-15.016,4.552L58.313,349.598z     M203.113,390.622c-12.307-24.047-2.789-53.518,21.259-65.824c24.047-12.306,53.518-2.789,65.824,21.259    c1.218,2.381,2.24,4.858,3.053,7.406L203.113,390.622z M308.177,347.31c-11.672-33.943-48.65-51.998-82.593-40.327    c-33.943,11.672-51.998,48.65-40.327,82.593c0.843,2.451,1.831,4.849,2.96,7.181l-159.2,65.648    c-4.783,1.972-10.26-0.306-12.232-5.089c-0.943-2.288-0.943-4.855,0-7.143l26.136-63.2l18.832-5.776l4.888,28.52    c0.745,4.355,4.879,7.282,9.234,6.537c0.002,0,0.004-0.001,0.006-0.001l20.872-3.576c27.661-4.747,46.239-31.018,41.496-58.68    l-3.096-18.088c-4.42-25.784-27.693-44-53.784-42.096l34.216-82.784c34.571,9.508,70.304-10.809,79.812-45.38    c7.885-28.668-4.714-59.029-30.58-73.692l8.736-21.144c122.169,16.819,218.162,112.985,234.76,235.184L308.177,347.31z     M458.809,285.198l-35.2,14.496c-19.037-125.976-117.815-224.916-243.76-244.16l14.064-33.952c1.176-2.961,4.015-4.925,7.2-4.984    h0.272c141.79,6.174,255.528,119.354,262.4,261.112C463.85,280.999,461.867,283.984,458.809,285.198z" fill="#FFFFFF"/>
	</g>
</g>
<g>
	<g>
		<path d="M283.889,152.398h-18.352c-28.057,0.031-50.793,22.767-50.824,50.824v21.176c0,4.418,3.582,8,8,8h26.936l-4.872,39.008    c-0.548,4.384,2.562,8.382,6.946,8.93c0.328,0.041,0.659,0.062,0.99,0.062h42c4.418-0.001,7.999-3.584,7.998-8.002    c0-0.331-0.021-0.661-0.062-0.99l-4.872-39.008h28.936c4.418,0,8-3.582,8-8v-21.176    C334.682,175.165,311.946,152.428,283.889,152.398z M318.713,216.398h-30c-4.418,0.001-7.999,3.584-7.998,8.002    c0,0.331,0.021,0.661,0.062,0.99l4.872,39.008h-23.872l4.872-39.008c0.548-4.384-2.562-8.382-6.946-8.93    c-0.328-0.041-0.659-0.062-0.99-0.062h-28v-13.176c0.022-19.224,15.6-34.802,34.824-34.824h18.352    c19.224,0.022,34.802,15.6,34.824,34.824V216.398z" fill="#FFFFFF"/>
	</g>
</g>
<g>
	<g>
		<rect x="190.713" y="248.398" width="16" height="16" fill="#FFFFFF"/>
	</g>
</g>
<g>
	<g>
		<rect x="358.713" y="240.398" width="16" height="16" fill="#FFFFFF"/>
	</g>
</g>
<g>
	<g>
		<rect x="214.713" y="104.398" width="16" height="16" fill="#FFFFFF"/>
	</g>
</g>
<g>
	<g>
		<rect x="326.713" y="288.398" width="16" height="16" fill="#FFFFFF"/>
	</g>
</g>
<g>
	<g>
		<rect x="150.713" y="304.398" width="16" height="16" fill="#FFFFFF"/>
	</g>
</g>
<g>
	<g>
		<rect x="134.713" y="232.398" width="16" height="16" fill="#FFFFFF"/>
	</g>
</g>
<g>
</g>
<g>
</g>
<g>
</g>
<g>
</g>
<g>
</g>
<g>
</g>
<g>
</g>
<g>
</g>
<g>
</g>
<g>
</g>
<g>
</g>
<g>
</g>
<g>
</g>
<g>
</g>
<g>
</g>
</svg>
